<svg width="28" height="28" viewBox="0 0 28 28" fill="none" xmlns="http://www.w3.org/2000/svg">
<g clip-path="url(#clip0_342_16169)">
<mask id="mask0_342_16169" style="mask-type:luminance" maskUnits="userSpaceOnUse" x="0" y="0" width="28" height="28">
<path d="M28 0H0V28H28V0Z" fill="white"/>
</mask>
<g mask="url(#mask0_342_16169)">
<path d="M14 28C21.732 28 28 21.732 28 14C28 6.26801 21.732 0 14 0C6.26801 0 0 6.26801 0 14C0 21.732 6.26801 28 14 28Z" fill="#EE701F"/>
<path fill-rule="evenodd" clip-rule="evenodd" d="M21.746 9.38925C21.6159 9.25915 21.4616 9.15595 21.2917 9.08554C21.1217 9.01513 20.9396 8.97888 20.7557 8.97888C20.5718 8.97888 20.3896 9.01513 20.2197 9.08554C20.0498 9.15595 19.8954 9.25915 19.7654 9.38925L12.3016 16.854L8.57008 13.1235C8.4401 12.9934 8.28577 12.8903 8.11592 12.8199C7.94607 12.7495 7.76401 12.7132 7.58014 12.7132C7.20881 12.7131 6.85265 12.8605 6.59001 13.123C6.45997 13.253 6.3568 13.4073 6.2864 13.5772C6.216 13.747 6.17974 13.9291 6.17969 14.1129C6.17961 14.4843 6.32703 14.8404 6.58955 15.1031L11.2096 19.7231C11.3738 19.8864 11.568 20.0012 11.7752 20.0675C12.0341 20.1831 12.3221 20.2173 12.6009 20.1656C12.8797 20.114 13.1363 19.9788 13.3366 19.7781L21.746 11.3697C22.0084 11.1072 22.1559 10.7512 22.1559 10.3799C22.1559 10.0087 22.0084 9.65179 21.746 9.38925Z" fill="white"/>
</g>
</g>
<defs>
<clipPath id="clip0_342_16169">
<rect width="28" height="28" fill="white"/>
</clipPath>
</defs>
</svg>
