<svg width="1255" height="602" viewBox="0 0 1255 602" fill="none" xmlns="http://www.w3.org/2000/svg">
<path d="M0 554C0 570.802 0 579.202 3.2698 585.62C6.14601 591.265 10.7354 595.854 16.3803 598.73C22.7976 602 31.1984 602 48 602H1192.51C1220.2 602 1234.05 602 1241.97 596.192C1248.88 591.127 1253.29 583.353 1254.09 574.827C1255.02 565.049 1247.92 553.162 1233.72 529.387L989.283 120.119C984.768 112.559 982.51 108.779 979.447 105.902C976.734 103.354 973.57 101.333 970.117 99.9424C966.219 98.3723 961.84 97.9128 953.082 96.994L53.0085 2.56145C34.6499 0.635307 25.4706 -0.327706 18.3709 2.65777C12.1351 5.28002 6.9686 9.93285 3.70999 15.861C0 22.6104 0 31.84 0 50.2994V554Z" fill="url(#paint0_linear_342_16177)"/>
<defs>
<linearGradient id="paint0_linear_342_16177" x1="-16.8467" y1="299.5" x2="1130.4" y2="334.048" gradientUnits="userSpaceOnUse">
<stop stop-color="#EE701F"/>
<stop offset="1" stop-color="#EE701F"/>
</linearGradient>
</defs>
</svg>
