<svg width="97" height="67" viewBox="0 0 97 67" fill="none" xmlns="http://www.w3.org/2000/svg">
<path d="M85.7438 58.6271C82.9477 61.0274 80.2803 63.4082 77.1917 66.0506C79.2832 67.2474 81.2687 66.8798 82.6961 65.8727C86.9783 62.8515 91.2409 59.7015 95.1873 56.2044C97.453 54.2139 96.6756 51.698 93.8313 50.7474C89.1025 49.0953 84.2841 47.7202 79.4461 46.2164C79.169 46.1268 78.8179 45.9826 78.6346 46.0763C77.8818 46.3224 77.2227 46.7518 76.4894 47.1266C76.8447 47.7311 76.9816 48.6322 77.481 48.8856C79.2018 49.8094 80.9576 50.5304 82.6588 51.3255C83.5836 51.7777 84.4888 52.1011 85.4021 53.3451C83.9315 53.6344 82.4064 53.9979 80.9358 54.2872C50.2984 58.9424 21.0998 43.1629 7.94126 15.0688C6.27007 11.4376 5.03963 7.67353 3.55175 3.9486C3.02455 2.64585 2.44277 1.41724 1.91558 0.114492C1.58398 0.0990273 1.27194 0.212288 0.940339 0.196823C0.671512 1.02787 0.0906453 1.97218 0.282146 2.79914C0.767042 5.55701 1.25193 8.31489 2.12301 11.0141C10.6856 37.8969 35.8831 57.2475 65.0681 59.0688C70.6507 59.4058 76.2797 58.7481 81.8387 58.4961C83.0168 58.4488 84.1012 58.2182 85.2598 58.0421C85.4626 58.0772 85.6305 58.3151 85.7438 58.6271Z" fill="#EE701F"/>
</svg>
