<svg width="140" height="45" viewBox="0 0 140 45" fill="none" xmlns="http://www.w3.org/2000/svg">
<path d="M9.375 40.457C8.29688 40.457 7.27344 40.2891 6.30469 39.9531C5.33594 39.6172 4.48438 39.1211 3.75 38.4648C2.91406 37.7148 2.25781 36.8008 1.78125 35.7227C1.30469 34.6445 1.06641 33.4531 1.06641 32.1484C1.06641 30.9375 1.26172 29.8359 1.65234 28.8438C2.05078 27.8438 2.65234 26.9453 3.45703 26.1484C4.19141 25.4141 5.05859 24.8516 6.05859 24.4609C7.05859 24.0703 8.14453 23.875 9.31641 23.875C10.4648 23.875 11.5273 24.0586 12.5039 24.4258C13.4883 24.7852 14.3516 25.3164 15.0938 26.0195C15.9297 26.8086 16.5547 27.7305 16.9688 28.7852C17.3906 29.832 17.6016 30.957 17.6016 32.1602C17.6016 33.3711 17.3359 34.5547 16.8047 35.7109C16.2812 36.8672 15.5234 37.8516 14.5312 38.6641C13.7578 39.3047 12.9375 39.7617 12.0703 40.0352C11.2031 40.3164 10.3047 40.457 9.375 40.457ZM13.6172 32.3359C13.6172 31.5547 13.4844 30.7656 13.2188 29.9688C12.9609 29.1719 12.5547 28.5156 12 28C11.6562 27.6719 11.2617 27.4141 10.8164 27.2266C10.3711 27.0391 9.875 26.9453 9.32812 26.9453C8.78906 26.9453 8.29297 27.043 7.83984 27.2383C7.38672 27.4258 6.96875 27.707 6.58594 28.082C6.10156 28.5664 5.72266 29.1836 5.44922 29.9336C5.18359 30.6836 5.05078 31.4414 5.05078 32.207C5.05078 33.0586 5.18359 33.8477 5.44922 34.5742C5.72266 35.3008 6.11719 35.9102 6.63281 36.4023C6.97656 36.7305 7.37891 36.9922 7.83984 37.1875C8.30078 37.3828 8.80078 37.4805 9.33984 37.4805C9.73047 37.4805 10.1641 37.4141 10.6406 37.2812C11.1172 37.1406 11.5664 36.8789 11.9883 36.4961C12.4961 36.0195 12.8945 35.4023 13.1836 34.6445C13.4727 33.8867 13.6172 33.1172 13.6172 32.3359ZM9.24609 34.7031L11.2031 33.0039C11.5938 33.457 12.4336 34.418 13.7227 35.8867C15.0195 37.3477 16.4609 38.9258 18.0469 40.6211L15.9141 42.4609C14.2656 40.5625 12.8438 38.918 11.6484 37.5273C10.4609 36.1289 9.66016 35.1875 9.24609 34.7031ZM31.9102 40H28.4062V38.8633L28.3945 38.8516C27.832 39.1641 27.1289 39.4883 26.2852 39.8242C25.4492 40.1602 24.6562 40.3281 23.9062 40.3281C22.7656 40.3281 21.8789 39.9922 21.2461 39.3203C20.6211 38.6484 20.3086 37.7266 20.3086 36.5547C20.3086 35.8125 20.3125 35.0117 20.3203 34.1523C20.3359 33.2852 20.3438 32.6523 20.3438 32.2539C20.3438 31.5273 20.3359 30.6953 20.3203 29.7578C20.3047 28.8125 20.2969 28.2383 20.2969 28.0352H23.8945C23.8945 28.2305 23.8867 28.7773 23.8711 29.6758C23.8633 30.5664 23.8594 31.3125 23.8594 31.9141C23.8594 32.3906 23.8633 32.9922 23.8711 33.7188C23.8789 34.4453 23.8828 34.9766 23.8828 35.3125C23.8906 36 24 36.5312 24.2109 36.9062C24.4219 37.2734 24.8008 37.457 25.3477 37.457C25.8477 37.457 26.3984 37.332 27 37.082C27.6094 36.8242 28.0547 36.5977 28.3359 36.4023C28.3359 36.3477 28.3398 35.9531 28.3477 35.2188C28.3555 34.4844 28.3594 33.6562 28.3594 32.7344C28.3594 31.9375 28.3516 31.0117 28.3359 29.957C28.3203 28.8945 28.3125 28.2539 28.3125 28.0352H31.9102C31.9102 28.2383 31.9023 28.8242 31.8867 29.793C31.8789 30.7539 31.875 31.9844 31.875 33.4844C31.875 34.5234 31.8789 35.4531 31.8867 36.2734C31.8945 37.0859 31.9023 38.3281 31.9102 40ZM45.3164 33.7773C45.3164 35.6914 45.3125 37.168 45.3047 38.207C45.3047 39.2461 45.3047 39.8477 45.3047 40.0117C45.1797 40.0273 44.6719 40.0625 43.7812 40.1172C42.8906 40.1719 41.9453 40.1992 40.9453 40.1992C40.2891 40.1992 39.5391 40.1445 38.6953 40.0352C37.8594 39.9258 37.1602 39.75 36.5977 39.5078C35.8789 39.1953 35.3164 38.7852 34.9102 38.2773C34.5039 37.7617 34.3008 37.1602 34.3008 36.4727C34.3008 35.7227 34.5156 35.082 34.9453 34.5508C35.3828 34.0195 36.0625 33.582 36.9844 33.2383C37.6016 33.0039 38.3633 32.8203 39.2695 32.6875C40.1758 32.5547 40.9961 32.4609 41.7305 32.4062C41.707 31.9844 41.5938 31.6406 41.3906 31.375C41.1953 31.1016 40.8594 30.8906 40.3828 30.7422C40.0703 30.6406 39.7227 30.5703 39.3398 30.5312C38.9648 30.4844 38.5156 30.4609 37.9922 30.4609C37.5156 30.4609 37.1094 30.4688 36.7734 30.4844C36.4375 30.5 36.0742 30.5156 35.6836 30.5312L36 27.918C36.1562 27.9102 36.4062 27.9023 36.75 27.8945C37.0938 27.8789 37.5781 27.8711 38.2031 27.8711C39.5234 27.8711 40.6211 27.9844 41.4961 28.2109C42.3789 28.4375 43.1211 28.8125 43.7227 29.3359C44.2773 29.8125 44.6797 30.3945 44.9297 31.082C45.1875 31.7617 45.3164 32.6602 45.3164 33.7773ZM41.918 35.9336C41.918 35.6836 41.918 35.3945 41.918 35.0664C41.918 34.7305 41.9141 34.3789 41.9062 34.0117C41.6797 34.0195 41.2773 34.0664 40.6992 34.1523C40.1211 34.2305 39.6055 34.3672 39.1523 34.5625C38.8398 34.6875 38.5508 34.8828 38.2852 35.1484C38.0273 35.4141 37.8984 35.7422 37.8984 36.1328C37.8984 36.5703 38.0117 36.918 38.2383 37.1758C38.4727 37.4336 38.7734 37.6328 39.1406 37.7734C39.4062 37.8672 39.707 37.9375 40.043 37.9844C40.3789 38.0312 40.7422 38.0547 41.1328 38.0547C41.2344 38.0547 41.3516 38.0547 41.4844 38.0547C41.6172 38.0469 41.7578 38.043 41.9062 38.043C41.9062 37.9414 41.9062 37.7031 41.9062 37.3281C41.9141 36.9531 41.918 36.4883 41.918 35.9336ZM60.1406 40H56.543C56.543 39.7578 56.5469 39.1641 56.5547 38.2188C56.5703 37.2656 56.5781 36.5117 56.5781 35.957C56.5781 35.5664 56.5742 35.0156 56.5664 34.3047C56.5664 33.5859 56.5625 33.043 56.5547 32.6758C56.5391 31.957 56.4141 31.4375 56.1797 31.1172C55.9531 30.7891 55.5469 30.625 54.9609 30.625C54.5703 30.625 54.1094 30.7266 53.5781 30.9297C53.0547 31.125 52.5586 31.3594 52.0898 31.6328C52.0898 31.6797 52.0859 32.1172 52.0781 32.9453C52.0781 33.7734 52.0781 34.4688 52.0781 35.0312C52.0781 35.875 52.0859 36.8867 52.1016 38.0664C52.1172 39.2461 52.125 39.8906 52.125 40H48.5273C48.5273 39.8203 48.5312 39.2734 48.5391 38.3594C48.5547 37.4453 48.5625 36.1133 48.5625 34.3633C48.5625 33.3555 48.5586 32.332 48.5508 31.293C48.543 30.2461 48.5352 29.1602 48.5273 28.0352H52.0547L52.043 29.1484L52.0547 29.1719C52.7969 28.7578 53.582 28.4141 54.4102 28.1406C55.2383 27.8672 55.9688 27.7305 56.6016 27.7305C57.6797 27.7305 58.5352 28.0664 59.168 28.7383C59.8086 29.4023 60.1289 30.3008 60.1289 31.4336C60.1289 32.3789 60.1211 33.168 60.1055 33.8008C60.0977 34.4258 60.0938 34.9531 60.0938 35.3828C60.0938 36.1094 60.1016 37.0039 60.1172 38.0664C60.1328 39.1211 60.1406 39.7656 60.1406 40ZM71.5664 37.5156L71.2266 40.082C71.1172 40.0898 70.9336 40.0977 70.6758 40.1055C70.418 40.1133 70.082 40.1172 69.668 40.1172C67.7695 40.1172 66.3359 39.7578 65.3672 39.0391C64.4062 38.3125 63.9258 37.2344 63.9258 35.8047C63.9258 34.8906 63.9297 34.0469 63.9375 33.2734C63.9453 32.4922 63.9492 31.5977 63.9492 30.5898H62.0039V28.0352H64.043V24.9062H67.5V28.0352H71.5195V30.5898H67.5C67.5 30.7617 67.4961 31.1055 67.4883 31.6211C67.4805 32.1289 67.4766 32.5469 67.4766 32.875C67.4766 33.1328 67.4766 33.4492 67.4766 33.8242C67.4844 34.1914 67.4883 34.5781 67.4883 34.9844C67.4883 35.8359 67.7266 36.4727 68.2031 36.8945C68.6797 37.3086 69.5586 37.5156 70.8398 37.5156C70.9883 37.5156 71.1328 37.5156 71.2734 37.5156C71.4141 37.5156 71.5117 37.5156 71.5664 37.5156ZM85.207 40H81.7031V38.8633L81.6914 38.8516C81.1289 39.1641 80.4258 39.4883 79.582 39.8242C78.7461 40.1602 77.9531 40.3281 77.2031 40.3281C76.0625 40.3281 75.1758 39.9922 74.543 39.3203C73.918 38.6484 73.6055 37.7266 73.6055 36.5547C73.6055 35.8125 73.6094 35.0117 73.6172 34.1523C73.6328 33.2852 73.6406 32.6523 73.6406 32.2539C73.6406 31.5273 73.6328 30.6953 73.6172 29.7578C73.6016 28.8125 73.5938 28.2383 73.5938 28.0352H77.1914C77.1914 28.2305 77.1836 28.7773 77.168 29.6758C77.1602 30.5664 77.1562 31.3125 77.1562 31.9141C77.1562 32.3906 77.1602 32.9922 77.168 33.7188C77.1758 34.4453 77.1797 34.9766 77.1797 35.3125C77.1875 36 77.2969 36.5312 77.5078 36.9062C77.7188 37.2734 78.0977 37.457 78.6445 37.457C79.1445 37.457 79.6953 37.332 80.2969 37.082C80.9062 36.8242 81.3516 36.5977 81.6328 36.4023C81.6328 36.3477 81.6367 35.9531 81.6445 35.2188C81.6523 34.4844 81.6562 33.6562 81.6562 32.7344C81.6562 31.9375 81.6484 31.0117 81.6328 29.957C81.6172 28.8945 81.6094 28.2539 81.6094 28.0352H85.207C85.207 28.2383 85.1992 28.8242 85.1836 29.793C85.1758 30.7539 85.1719 31.9844 85.1719 33.4844C85.1719 34.5234 85.1758 35.4531 85.1836 36.2734C85.1914 37.0859 85.1992 38.3281 85.207 40ZM107.672 40H104.074C104.082 39.6562 104.09 39.1172 104.098 38.3828C104.105 37.6406 104.109 36.8203 104.109 35.9219C104.109 35.5703 104.105 35.0352 104.098 34.3164C104.098 33.5977 104.094 33.043 104.086 32.6523C104.07 31.9023 103.938 31.3789 103.688 31.082C103.438 30.7773 103.043 30.625 102.504 30.625C102.152 30.625 101.754 30.6992 101.309 30.8477C100.863 30.9961 100.395 31.2109 99.9023 31.4922C99.9023 31.5156 99.9023 31.582 99.9023 31.6914C99.9023 31.793 99.9023 31.9219 99.9023 32.0781C99.9023 32.6797 99.8984 33.2852 99.8906 33.8945C99.8828 34.5039 99.8789 35.0469 99.8789 35.5234C99.8789 36.5391 99.8867 37.4727 99.9023 38.3242C99.918 39.1758 99.9258 39.7344 99.9258 40H96.3398C96.3398 39.7969 96.3438 39.3359 96.3516 38.6172C96.3672 37.8906 96.375 37 96.375 35.9453C96.375 35.5625 96.3711 35.0156 96.3633 34.3047C96.3633 33.5859 96.3594 33.043 96.3516 32.6758C96.3438 32.418 96.3203 32.1641 96.2812 31.9141C96.25 31.6562 96.1836 31.4375 96.082 31.2578C95.9648 31.0469 95.8125 30.8906 95.625 30.7891C95.4453 30.6797 95.168 30.625 94.793 30.625C94.4336 30.625 94.0273 30.7188 93.5742 30.9062C93.1211 31.0938 92.6523 31.3281 92.168 31.6094C92.168 31.6875 92.1641 32.1719 92.1562 33.0625C92.1484 33.9453 92.1445 34.6367 92.1445 35.1367C92.1445 35.9727 92.1523 36.918 92.168 37.9727C92.1836 39.0273 92.1914 39.7031 92.1914 40H88.6055C88.6055 39.6172 88.6094 38.9727 88.6172 38.0664C88.6328 37.1523 88.6406 35.8672 88.6406 34.2109C88.6406 33.5391 88.6367 32.6719 88.6289 31.6094C88.6289 30.5469 88.6211 29.3555 88.6055 28.0352H92.1211L92.1094 29.1953L92.1328 29.207C92.5938 28.9102 93.2383 28.5898 94.0664 28.2461C94.9023 27.9023 95.6602 27.7305 96.3398 27.7305C97.0664 27.7305 97.6875 27.875 98.2031 28.1641C98.7188 28.4453 99.1094 28.8164 99.375 29.2773H99.3984C100.094 28.8555 100.871 28.4922 101.73 28.1875C102.598 27.8828 103.375 27.7305 104.062 27.7305C105.188 27.7305 106.066 28.0664 106.699 28.7383C107.332 29.4023 107.648 30.2773 107.648 31.3633C107.648 32.2617 107.645 33.0039 107.637 33.5898C107.629 34.168 107.625 34.7344 107.625 35.2891C107.625 36.3516 107.633 37.3164 107.648 38.1836C107.664 39.043 107.672 39.6484 107.672 40ZM131.484 39.0742L127.664 40.3516C127.578 40.0938 127.363 39.5273 127.02 38.6523C126.684 37.7773 126.281 36.7891 125.812 35.6875H120.094C119.602 36.8047 119.18 37.8008 118.828 38.6758C118.484 39.5508 118.273 40.1094 118.195 40.3516L114.598 39.1328C114.809 38.6641 115.621 36.8047 117.035 33.5547C118.457 30.2969 119.812 27.1758 121.102 24.1914H125.074C126.418 27.332 127.797 30.5391 129.211 33.8125C130.625 37.0781 131.383 38.832 131.484 39.0742ZM125.215 33.25C124.887 32.4531 124.527 31.5781 124.137 30.625C123.746 29.6641 123.355 28.7227 122.965 27.8008H122.918C122.59 28.5586 122.199 29.4961 121.746 30.6133C121.293 31.7305 120.926 32.6094 120.645 33.25L120.656 33.2617H125.203L125.215 33.25ZM137.332 40H133.453C133.461 39.3359 133.469 38.375 133.477 37.1172C133.492 35.8594 133.5 34.1523 133.5 31.9961C133.5 31.0898 133.496 29.9453 133.488 28.5625C133.48 27.1719 133.469 25.7539 133.453 24.3086H137.332C137.324 25.3789 137.312 26.6133 137.297 28.0117C137.289 29.4023 137.285 30.6406 137.285 31.7266C137.285 33.9375 137.289 35.6484 137.297 36.8594C137.312 38.0625 137.324 39.1094 137.332 40Z" fill="white"/>
<path d="M86 21L83 16L111 0H112L140 16L136 21L112 6H111L86 21Z" fill="#F79E1B"/>
</svg>
