<svg width="3187" height="674" viewBox="0 0 3187 674" fill="none" xmlns="http://www.w3.org/2000/svg">
<g clip-path="url(#clip0_468_16253)">
<path fill-rule="evenodd" clip-rule="evenodd" d="M345.695 460.5L363.195 460.785C372.82 460.942 381.707 460.82 382.945 460.516C385.187 459.964 385.195 459.89 385.195 439.481V419H345.154L345.695 460.5ZM579.641 420.279C579.371 420.983 579.273 430.321 579.423 441.029L579.695 460.5H618.695L619.236 419H599.684C584.725 419 580.017 419.301 579.641 420.279ZM1526.2 466.917L1443.7 467.5L1438.2 470.11C1430.51 473.76 1424.14 479.772 1420.12 487.179L1416.7 493.5V589.5L1419.54 595.301C1423.01 602.359 1430.36 609.917 1436.87 613.122L1441.7 615.5L1567.2 616.044V419H1526.2V466.917ZM2699.7 460.5L2717.2 460.785C2726.82 460.942 2735.71 460.82 2736.95 460.516C2739.19 459.964 2739.2 459.89 2739.2 439.481V419H2699.16L2699.7 460.5ZM382.195 458H346.195V421H382.195V458ZM617.195 458H580.195V421H617.195V458ZM1564.2 615L1508.95 614.985C1448.76 614.969 1446.03 614.755 1435.93 609.257C1430.57 606.343 1424.06 599.591 1421.19 593.975C1417.5 586.765 1417.04 580.018 1417.37 537.976L1417.7 497.452L1420.97 490.804C1425.07 482.48 1433 474.966 1440.74 472.071C1446 470.1 1448.25 470 1487.23 470H1528.2V421H1564.2V615ZM2736.2 458H2701.2V421H2736.2V458ZM2275.7 590.5L2278.06 595.3C2281.37 602.023 2289.11 609.602 2295.93 612.796L2301.7 615.5L2369.2 616.076V576H2315.2V508H2369.2V468H2315.24L2314.7 424.5L2275.16 423.958L2275.7 590.5ZM2313.2 470H2368.2V507H2313.2V578H2368.2V615L2340.95 614.992C2311.37 614.984 2303.49 614.197 2296.25 610.527C2290.28 607.5 2283.3 600.462 2280.14 594.28L2277.7 589.5L2277.16 426H2313.2V470ZM110.195 616H151.195V495.618L155.064 500.059C159.093 504.683 179.937 529.475 191.195 543.033C194.77 547.338 201.07 554.898 205.195 559.833L212.695 568.805L215.067 566.652C216.371 565.469 220.963 560.165 225.271 554.867C229.579 549.569 233.689 544.619 234.404 543.867C235.119 543.115 237.721 540.025 240.186 537C242.651 533.975 244.916 531.275 245.22 531C245.523 530.725 249.072 526.45 253.106 521.5C260.488 512.44 267.384 504.252 272.416 498.572L275.136 495.5L275.195 616H316.195V432H274.399L269.921 437.25C267.459 440.137 260.406 448.575 254.25 456C248.093 463.425 241.899 470.85 240.486 472.5C239.072 474.15 234.041 480.216 229.306 485.981C224.57 491.745 220.02 497.15 219.195 497.991C218.37 498.833 216.683 500.815 215.445 502.395L213.195 505.27L211.303 502.885C210.262 501.573 206.55 497.102 203.053 492.948C199.556 488.795 193.147 481.145 188.81 475.948C184.474 470.752 179.016 464.25 176.683 461.5C174.35 458.75 167.855 450.988 162.249 444.25L152.058 432H110.195V616ZM154.978 437.975C157.334 440.71 162.448 446.847 166.344 451.612C170.239 456.378 174.446 461.452 175.693 462.888C176.939 464.325 180.774 468.875 184.213 473C206.416 499.627 212.725 507 213.31 507C213.673 507 216.59 503.737 219.793 499.75C222.996 495.763 226.123 492.05 226.743 491.5C227.362 490.95 230.716 486.9 234.195 482.5C237.674 478.1 241.034 474.05 241.66 473.5C242.286 472.95 247.021 467.325 252.181 461C257.342 454.675 261.835 449.275 262.166 449C262.496 448.725 265.6 445.003 269.062 440.729L275.358 432.958L314.695 433.5L315.206 615H277.195V554C277.195 503.714 276.96 493 275.856 493C275.12 493 271.445 496.878 267.689 501.617C263.933 506.356 260.089 510.969 259.147 511.867C258.205 512.765 254.178 517.5 250.199 522.388C246.22 527.277 241.95 532.452 240.71 533.888C236.817 538.399 227.865 549.162 220.465 558.227L213.342 566.953L209.036 561.727C206.668 558.852 203.528 555.15 202.059 553.5C200.59 551.85 194.507 544.626 188.542 537.446C172.027 517.571 162.349 506.081 160.098 503.676C158.978 502.479 156.629 499.601 154.878 497.281C153.127 494.96 151.133 493.048 150.445 493.031C149.458 493.007 149.195 505.85 149.195 554V615H111.195V433L150.695 433.001L154.978 437.975ZM345.195 616H385.195V467H345.195V616ZM579.862 467.667C579.495 468.033 579.195 501.558 579.195 542.167V616H619.195V467H599.862C589.228 467 580.228 467.3 579.862 467.667ZM2699.2 616H2739.21L2738.7 467.5L2699.2 466.958V616ZM402.195 475.26C402.195 481.415 402.541 482.9 404.469 485.01C407.04 487.826 419.984 503.172 425.023 509.379C426.853 511.634 428.673 513.708 429.066 513.989C429.764 514.487 441.45 528.286 447.945 536.281C449.733 538.481 451.195 540.622 451.195 541.039C451.195 541.456 447.546 546.23 443.087 551.648C438.627 557.067 429.755 568.025 423.37 576C416.986 583.975 411.259 590.95 410.644 591.5C410.028 592.05 407.876 594.571 405.86 597.103C402.411 601.434 402.195 602.128 402.195 608.853V616H442.972L454.334 601.931C460.582 594.194 468.395 584.512 471.695 580.417L477.695 572.971L481.909 577.736C484.227 580.356 492.122 589.925 499.454 599L512.784 615.5L554.195 616.041V602.372L540.445 585.338C532.883 575.969 521.675 562.104 515.539 554.526L504.383 540.749L512.039 531.569C516.25 526.52 523.745 517.66 528.695 511.88C533.645 506.101 540.845 497.624 544.695 493.044C548.545 488.463 552.258 484.137 552.945 483.429C553.707 482.645 554.195 479.372 554.195 475.051V467.959L512.796 468.5L501.906 481.5C490.757 494.81 484.311 502.41 480.086 507.224L477.695 509.948L468.475 498.724C463.404 492.551 458.004 486.127 456.475 484.45C454.946 482.772 451.254 478.385 448.27 474.7L442.846 468H402.195V475.26ZM638.695 615.5L655.695 615.795C665.045 615.956 674.157 615.824 675.945 615.499L679.195 614.909V508H747.195V614.767L749.445 615.37C752.374 616.155 784.016 616.155 786.945 615.37L789.195 614.767L789.187 560.133C789.179 502.639 788.771 496.021 784.748 488.138C781.542 481.857 773.938 474.513 767.228 471.218L761.695 468.5L638.182 467.941L638.695 615.5ZM837.695 469.373C835.495 470.076 832.582 471.249 831.221 471.98C826.679 474.421 818.008 483.438 815.336 488.498L812.695 493.5L812.408 540.113C812.125 586.04 812.153 586.813 814.32 592.613C816.976 599.721 826.067 609.31 833.695 613.049L838.695 615.5L922.195 616.083V634H835.195V674H884.657C932.463 674 934.308 673.93 939.735 671.899C947.101 669.143 956.218 660.326 959.959 652.34L962.695 646.5V495.5L960.085 490C956.215 481.844 950.155 475.598 942.416 471.787L935.741 468.5L888.718 468.298C852.847 468.144 840.746 468.399 837.695 469.373ZM1070.2 508H1179.2V520.983L1070.7 521.5L1070.17 588.344L1073.05 594.422C1076.58 601.858 1083.78 609.156 1091.16 612.782L1096.7 615.5L1155.7 615.801C1188.15 615.967 1216.16 615.834 1217.95 615.506L1221.2 614.909L1221.19 560.205C1221.18 502.636 1220.77 496.022 1216.75 488.138C1213.54 481.857 1205.94 474.513 1199.23 471.218L1193.7 468.5L1070.2 467.941V508ZM1247.7 615.5L1264.7 615.795C1274.05 615.956 1283.16 615.824 1284.95 615.499L1288.2 614.909V508H1356.2V614.767L1358.45 615.37C1361.38 616.155 1393.02 616.155 1395.95 615.37L1398.2 614.767L1398.18 560.633C1398.17 530.638 1397.72 503.475 1397.18 499.715C1396.64 495.983 1395.11 490.808 1393.79 488.215C1390.55 481.863 1382.97 474.527 1376.23 471.218L1370.7 468.5L1247.18 467.941L1247.7 615.5ZM1676.2 616H1715.2V508H1762.2V616H1803.2V508H1850.2V616H1890.2L1890.15 497.5L1887.81 491.822C1884.77 484.428 1880.5 479.136 1873.97 474.673C1863.94 467.817 1866.89 468 1766.49 468H1676.2V616ZM1924.2 508H2033.2V521H1924.2V588.5L1927.14 594.719C1930.66 602.161 1937.07 608.85 1944.36 612.689L1949.7 615.5L2009.7 615.795C2042.7 615.957 2070.71 615.836 2071.95 615.526L2074.2 614.962V556.018C2074.2 498.724 2074.14 496.919 2072.11 491.503C2069.35 484.117 2060.87 474.968 2053.37 471.288L2047.7 468.5L1924.2 467.941V508ZM2127.55 469.039C2118.21 470.888 2107.98 478.711 2102.1 488.5C2099.8 492.335 2099.68 493.379 2099.38 513.755C2099.06 534.477 2099.11 535.142 2101.48 540.315C2104.62 547.157 2113.07 555.579 2120.14 558.892L2125.7 561.5L2208.2 562.083V576H2139.33L2138.7 570.5L2099.2 569.958L2099.21 579.729C2099.21 587.982 2099.6 590.316 2101.66 594.753C2104.86 601.627 2112.79 609.451 2119.96 612.812L2125.7 615.5H2222.7L2228.53 612.545C2236.11 608.701 2244.31 599.875 2247.33 592.285C2249.43 587.03 2249.64 584.898 2249.67 569C2249.7 552.337 2249.57 551.203 2247.08 545.288C2242.89 535.35 2235.83 528.297 2225.91 524.127L2219.7 521.517L2139.2 520.842V508H2208.2V513.041L2249.7 512.5L2249.57 505.371C2249.33 492.327 2243.81 482.037 2233.16 474.775C2223.63 468.276 2221.05 467.986 2173.74 468.11C2150.61 468.17 2129.83 468.588 2127.55 469.039ZM2414.52 469.42C2404.94 472.459 2394.8 482.111 2391.27 491.541C2389.29 496.836 2389.2 499.013 2389.2 542C2389.2 584.987 2389.29 587.164 2391.27 592.459C2393.98 599.707 2401.41 607.756 2409.39 612.083L2415.7 615.5L2475.7 615.795C2508.7 615.957 2536.71 615.836 2537.95 615.526C2540.18 614.965 2540.2 614.846 2540.2 595.588C2540.2 578.844 2539.98 576.132 2538.61 575.607C2537.74 575.273 2512.99 575 2483.61 575H2430.2V563L2482.95 562.986C2511.96 562.979 2536.74 562.694 2538.01 562.354L2540.32 561.735L2539.7 495.5L2537.01 489.764C2533.57 482.436 2525.76 474.623 2518.43 471.188L2512.7 468.5L2465.7 468.298C2429 468.14 2417.78 468.386 2414.52 469.42ZM2592.7 469.409C2589.95 470.09 2585.9 471.591 2583.7 472.743C2579.06 475.171 2571.58 482.73 2568.11 488.5L2565.7 492.5L2565.14 616H2605.2V508H2684.2V468L2640.95 468.085C2610.17 468.146 2596.25 468.527 2592.7 469.409ZM2758.7 615.5L2775.7 615.795C2785.05 615.956 2794.16 615.824 2795.95 615.499L2799.2 614.909V508H2867.2V561.393C2867.2 609.158 2867.36 614.85 2868.78 615.393C2871.16 616.305 2905.5 616.093 2906.98 615.157C2908 614.508 2908.2 602.171 2907.98 553.922L2907.7 493.5L2905.06 488.498C2901.75 482.243 2892.7 473.582 2886.45 470.694C2881.74 468.521 2881.12 468.497 2819.94 468.221L2758.18 467.941L2758.7 615.5ZM2956.62 469.801C2945.29 473.76 2934.57 485.373 2932.19 496.26C2931.4 499.887 2931.14 514.887 2931.37 545L2931.7 588.5L2934.54 594.297C2938.17 601.695 2945.49 609.017 2952.9 612.652L2958.7 615.5L3041.7 616.5V633.5L2954.7 634.5V673.5H3056.7L3061.74 670.837C3071.54 665.667 3079.36 655.664 3081.84 645.147C3083.77 636.936 3083.77 505.064 3081.84 496.853C3079.32 486.166 3071.05 476.035 3060.7 470.954L3055.7 468.5L3008.7 468.263C2965.89 468.048 2961.24 468.185 2956.62 469.801ZM445.061 473.302C448.7 477.841 455.59 486.009 461.222 492.46C463.162 494.682 466.963 499.2 469.669 502.5C475.107 509.132 478.202 512.385 478.566 511.851C479.401 510.628 488.891 499.318 489.768 498.5C490.358 497.95 496.134 491.087 502.602 483.25L514.362 469H553.195V474.948C553.195 479.728 552.753 481.376 550.945 483.336C549.708 484.678 545.545 489.514 541.695 494.084C537.845 498.653 530.629 507.141 525.66 512.946C520.691 518.751 513.39 527.396 509.436 532.159L502.248 540.817L511.32 552.159C516.31 558.396 520.7 563.725 521.075 564C521.45 564.275 528.223 572.6 536.126 582.5C544.029 592.4 551.103 601 551.845 601.61C552.711 602.322 553.195 604.921 553.195 608.86V615H514.413L506.603 605.25C493.917 589.415 478.969 571.523 478.156 571.201C477.471 570.93 459.146 592.725 446.696 608.619L441.698 615H403.195V609.129C403.195 603.437 403.385 603.018 409.434 595.379C412.865 591.046 416.169 587.05 416.776 586.5C417.382 585.95 424.562 577.175 432.732 567C440.901 556.825 448.845 547.15 450.385 545.5C453.886 541.75 453.893 540.27 450.429 536.5C448.913 534.85 442.744 527.65 436.72 520.5C430.696 513.35 425.506 507.275 425.188 507C424.869 506.725 421.253 502.499 417.151 497.61C402.334 479.944 403.195 481.347 403.195 474.859V469L441.695 469.103L445.061 473.302ZM764.37 472.16C772.314 475.884 778.592 482.03 782.445 489.855L785.695 496.454L786.284 615H750.195V506H676.195V615H639.195V468.912L758.695 469.5L764.37 472.16ZM937.12 471.297C946.308 474.905 954.672 483.487 958.295 493.022C960.173 497.964 960.234 500.86 959.97 572.326C959.696 646.294 959.689 646.513 957.501 651.251C954.228 658.338 946.226 666.25 938.917 669.626L932.695 672.5L837.151 673.091L837.695 635.5L924.265 634.979L923.695 614.5L881.695 614C839.98 613.503 839.663 613.484 834.915 611.126C827.344 607.365 820.659 600.688 816.976 593.206L813.695 586.543V497.5L816.516 491.395C821.325 480.991 832.019 472.14 842.306 470.052C844.72 469.562 866.045 469.251 889.695 469.36C927.864 469.537 933.192 469.754 937.12 471.297ZM1196.37 472.16C1204.32 475.884 1210.59 482.03 1214.45 489.855L1217.7 496.454L1218.29 615.061L1099.7 614.5L1093.7 611.702C1085.82 608.029 1078.09 600.327 1074.52 592.605L1071.7 586.5L1071.09 523H1182.2V506H1071.2V468.912L1190.7 469.5L1196.37 472.16ZM1373.37 472.16C1381.32 475.884 1387.59 482.03 1391.45 489.855L1394.7 496.454L1395.29 615H1359.2V506H1285.2V615H1248.2V468.912L1367.7 469.5L1373.37 472.16ZM2047.38 470.815C2056.44 473.872 2066.24 483.516 2069.92 493C2071.5 497.063 2071.69 503.205 2071.97 556.25L2072.27 615H2014.82C1961.4 615 1956.95 614.868 1951.33 613.119C1939.38 609.398 1928.7 598.233 1926.27 586.911C1925.64 583.983 1925.2 569.667 1925.2 552.451V523H2036.28L2035.7 506.5L1925.2 505.983V468.925L1984.45 469.249C2028.24 469.489 2044.66 469.897 2047.38 470.815ZM2515.93 472.38C2523.47 475.861 2530.26 482.774 2534.02 490.782L2536.7 496.5L2537.3 559.983L2427.7 560.5L2427.4 568.413C2427.19 574.068 2427.48 576.561 2428.4 577.148C2429.11 577.6 2453.88 577.976 2483.45 577.985L2537.2 578V615.061L2418.7 614.5L2413.2 611.89C2405.04 608.018 2398.79 601.96 2394.98 594.218L2391.7 587.541V495.5L2394.07 490.72C2399.12 480.547 2409.54 472.047 2419.42 470.033C2421.77 469.554 2443.05 469.237 2466.7 469.331L2509.7 469.5L2515.93 472.38ZM2881.38 470.815C2890.44 473.871 2900.24 483.515 2903.92 493C2905.5 497.063 2905.69 503.205 2905.97 556.25L2906.27 615H2870.21L2869.7 506.5L2796.2 505.975V615H2759.2V542.667C2759.2 502.883 2759.51 470.017 2759.9 469.629C2760.29 469.242 2786.95 469.071 2819.15 469.249C2862.38 469.489 2878.66 469.898 2881.38 470.815ZM3059.41 472.781C3066.88 476.464 3073.56 483.151 3077.32 490.72L3079.7 495.5V646.5L3076.77 652.281C3073.15 659.412 3065.97 666.28 3058.41 669.82L3052.7 672.5L2957.2 673.091V635.021L3043.7 634.5L3043.99 626.503C3044.16 622.105 3044.04 617.511 3043.73 616.295L3043.18 614.083L2959.7 613.5L2954.16 610.782C2947.1 607.313 2939.88 600.097 2936.41 593.033L2933.7 587.5V496.5L2936.33 490.88C2941.24 480.404 2949.99 473.014 2960.58 470.383C2964.39 469.437 2976.81 469.162 3009.22 469.306L3052.74 469.5L3059.41 472.781ZM382.695 615H346.195V470H382.169L382.695 615ZM617.195 615H580.195V470H617.195V615ZM1868.7 473.141C1875.73 476.856 1883.38 485.283 1886.28 492.525L1888.67 498.5L1889.31 615H1852.21L1851.7 506.5H1801.7L1801.18 615H1764.2V506H1714.2V615H1677.2V469.96L1863.7 470.5L1868.7 473.141ZM2227.79 473.187C2230.59 474.664 2235.17 478.378 2237.97 481.44C2244.28 488.347 2247.2 495.646 2247.2 504.538V511H2211.41L2210.15 505.975L2137.7 506.5L2137.12 523H2175.11C2215.09 523 2220.08 523.428 2228.29 527.561C2234.7 530.788 2242.58 539.725 2245.2 546.744C2247.16 551.981 2247.32 554.052 2247.02 570.491C2246.72 587.355 2246.54 588.818 2244.2 593.5C2240.99 599.913 2233.01 607.965 2226.99 610.87C2224.39 612.119 2219.44 613.55 2215.99 614.05C2207.31 615.305 2139.18 615.226 2131.33 613.953C2123.22 612.636 2116.9 609.391 2111.12 603.579C2104.08 596.498 2101.79 591.142 2101.36 580.75L2101 572H2137.2V578H2173.59C2205.85 578 2210.05 577.821 2210.59 576.418C2211.46 574.151 2211.31 562.728 2210.39 561.282C2209.81 560.365 2199.39 559.995 2168.16 559.782L2126.7 559.5L2121.2 556.881C2114.63 553.752 2107.45 546.757 2104.12 540.236C2101.86 535.816 2101.68 534.266 2101.38 517.016C2101.18 505.389 2101.49 497.041 2102.19 494.516C2104.72 485.508 2115.67 474.13 2124.67 471.164C2126.54 470.547 2145.84 470.23 2175.2 470.333L2222.7 470.5L2227.79 473.187ZM2682.2 505.977L2603.7 506.5L2603.18 615H2567.2V496.5L2570.05 490.5C2573.77 482.671 2579.86 476.549 2587.52 472.923L2593.7 470.002L2682.2 470V505.977ZM2736.2 615H2701.2V470H2736.2V615ZM1455.41 506.188C1454.51 507.091 1454.2 516.265 1454.2 542.181V576.962L1456.45 577.51C1457.68 577.811 1474.22 577.933 1493.2 577.779L1527.7 577.5V505.5L1492.16 505.238C1465.35 505.04 1456.32 505.273 1455.41 506.188ZM850.195 541.393C850.195 572.744 850.376 576.855 851.777 577.393C852.647 577.727 868.585 578 887.195 578C905.805 578 921.743 577.727 922.613 577.393C924.014 576.855 924.195 572.744 924.195 541.393V506H850.195V541.393ZM2427.2 528H2501.2V506H2427.2V528ZM2970.7 577.5L3005.2 577.779C3024.17 577.933 3040.71 577.81 3041.96 577.507L3044.22 576.955L3043.7 506.5L2970.17 505.975L2970.7 577.5ZM922.195 575H853.195V508H922.195V575ZM1526.2 575H1457.2V508H1526.2V575ZM2498.2 526H2430.2V508H2498.2V526ZM3042.22 575H2972.2V507.974L3041.7 508.5L3042.22 575ZM1108.7 577.5L1143.2 577.779C1162.17 577.933 1178.72 577.808 1179.98 577.502C1182.2 576.959 1182.26 576.667 1181.98 566.223L1181.7 555.5L1108.13 554.975L1108.7 577.5ZM1962.7 577.5L1997.2 577.779C2016.17 577.933 2032.72 577.808 2033.98 577.502C2036.2 576.959 2036.26 576.667 2035.98 566.223L2035.7 555.5L1962.13 554.975L1962.7 577.5ZM1179.2 575H1111.2V557H1179.2V575ZM2033.2 575H1964.2V566.667C1964.2 562.083 1964.5 558.033 1964.86 557.667C1965.23 557.3 1980.75 557 1999.36 557H2033.2V575Z" fill="white"/>
<path d="M154.978 437.975C157.334 440.71 162.448 446.847 166.344 451.612C170.239 456.378 174.446 461.452 175.693 462.888C176.939 464.325 180.774 468.875 184.213 473C206.416 499.627 212.725 507 213.31 507C213.673 507 216.59 503.737 219.793 499.75C222.996 495.763 226.123 492.05 226.743 491.5C227.362 490.95 230.716 486.9 234.195 482.5C237.674 478.1 241.034 474.05 241.66 473.5C242.286 472.95 247.021 467.325 252.181 461C257.342 454.675 261.835 449.275 262.166 449C262.496 448.725 265.6 445.003 269.062 440.729L275.358 432.958L314.695 433.5L315.206 615H277.195V554C277.195 503.714 276.96 493 275.856 493C275.12 493 271.445 496.878 267.689 501.617C263.933 506.356 260.089 510.969 259.147 511.867C258.205 512.765 254.178 517.5 250.199 522.388C246.22 527.277 241.95 532.452 240.71 533.888C236.817 538.399 227.865 549.162 220.465 558.227L213.342 566.953L209.036 561.727C206.668 558.852 203.528 555.15 202.059 553.5C200.59 551.85 194.507 544.626 188.542 537.446C172.027 517.571 162.349 506.081 160.098 503.676C158.978 502.479 156.629 499.601 154.878 497.281C153.127 494.96 151.133 493.048 150.445 493.031C149.458 493.007 149.195 505.85 149.195 554V615H111.195V433L150.695 433.001L154.978 437.975Z" fill="white"/>
<path d="M382.695 615H346.195V470H382.169L382.695 615Z" fill="white"/>
<path d="M382.195 458H346.195V421H382.195V458Z" fill="white"/>
<path d="M445.063 473.302C448.702 477.841 455.592 486.009 461.224 492.46C463.164 494.682 466.965 499.2 469.671 502.5C475.109 509.132 478.204 512.385 478.568 511.851C479.403 510.628 488.893 499.318 489.77 498.5C490.36 497.95 496.136 491.087 502.604 483.25L514.364 469H553.197V474.948C553.197 479.728 552.755 481.376 550.947 483.336C549.71 484.678 545.547 489.514 541.697 494.084C537.847 498.653 530.631 507.141 525.662 512.946C520.693 518.751 513.392 527.396 509.438 532.159L502.25 540.817L511.322 552.159C516.312 558.396 520.702 563.725 521.077 564C521.452 564.275 528.225 572.6 536.128 582.5C544.031 592.4 551.105 601 551.847 601.61C552.713 602.322 553.197 604.921 553.197 608.86V615H514.415L506.605 605.25C493.919 589.415 478.971 571.523 478.158 571.201C477.473 570.93 459.148 592.725 446.698 608.619L441.7 615H403.197V609.129C403.197 603.437 403.387 603.018 409.436 595.379C412.867 591.046 416.171 587.05 416.778 586.5C417.384 585.95 424.564 577.175 432.734 567C440.903 556.825 448.847 547.15 450.387 545.5C453.888 541.75 453.895 540.27 450.431 536.5C448.915 534.85 442.746 527.65 436.722 520.5C430.698 513.35 425.508 507.275 425.19 507C424.871 506.725 421.255 502.499 417.153 497.61C402.336 479.944 403.197 481.347 403.197 474.859V469L441.697 469.103L445.063 473.302Z" fill="white"/>
<path d="M617.195 458H580.195V421H617.195V458Z" fill="white"/>
<path d="M617.195 615H580.195V470H617.195V615Z" fill="white"/>
<path fill-rule="evenodd" clip-rule="evenodd" d="M937.12 471.297C946.308 474.905 954.672 483.487 958.295 493.022C960.173 497.964 960.234 500.86 959.97 572.326C959.696 646.294 959.689 646.513 957.501 651.251C954.228 658.338 946.226 666.25 938.917 669.626L932.695 672.5L837.151 673.091L837.695 635.5L924.265 634.979L923.695 614.5L881.695 614C839.98 613.503 839.663 613.484 834.915 611.126C827.344 607.365 820.659 600.688 816.976 593.206L813.695 586.543V497.5L816.516 491.395C821.325 480.991 832.019 472.14 842.306 470.052C844.72 469.562 866.045 469.251 889.695 469.36C927.864 469.537 933.192 469.754 937.12 471.297ZM851.777 577.393C850.376 576.855 850.195 572.744 850.195 541.393V506H924.195V541.393C924.195 572.744 924.014 576.855 922.613 577.393C921.743 577.727 905.805 578 887.195 578C868.585 578 852.647 577.727 851.777 577.393Z" fill="white"/>
<path d="M764.37 472.16C772.314 475.884 778.592 482.03 782.445 489.855L785.695 496.454L786.284 615H750.195V506H676.195V615H639.195V468.912L758.695 469.5L764.37 472.16Z" fill="white"/>
<path fill-rule="evenodd" clip-rule="evenodd" d="M1196.37 472.16C1204.32 475.884 1210.59 482.03 1214.45 489.855L1217.7 496.454L1218.29 615.061L1099.7 614.5L1093.7 611.702C1085.82 608.029 1078.09 600.327 1074.52 592.605L1071.7 586.5L1071.09 523H1182.2V506H1071.2V468.912L1190.7 469.5L1196.37 472.16ZM1108.7 577.5L1108.13 554.975L1181.7 555.5L1181.98 566.223C1182.26 576.667 1182.2 576.959 1179.98 577.502C1178.72 577.808 1162.17 577.933 1143.2 577.779L1108.7 577.5Z" fill="white"/>
<path fill-rule="evenodd" clip-rule="evenodd" d="M1564.2 615L1508.95 614.985C1448.76 614.969 1446.03 614.755 1435.93 609.257C1430.57 606.343 1424.06 599.591 1421.19 593.975C1417.5 586.765 1417.04 580.018 1417.37 537.976L1417.7 497.452L1420.97 490.804C1425.07 482.48 1433 474.966 1440.74 472.071C1446 470.1 1448.25 470 1487.23 470H1528.2V421H1564.2V615ZM1454.2 542.181C1454.2 516.265 1454.51 507.091 1455.41 506.188C1456.32 505.273 1465.35 505.04 1492.16 505.238L1527.7 505.5V577.5L1493.2 577.779C1474.22 577.933 1457.68 577.811 1456.45 577.51L1454.2 576.962V542.181Z" fill="white"/>
<path d="M1373.37 472.16C1381.32 475.884 1387.59 482.03 1391.45 489.855L1394.7 496.454L1395.29 615H1359.2V506H1285.2V615H1248.2V468.912L1367.7 469.5L1373.37 472.16Z" fill="white"/>
<path d="M1868.7 473.141C1875.73 476.856 1883.38 485.283 1886.28 492.525L1888.67 498.5L1889.31 615H1852.21L1851.7 506.5H1801.7L1801.18 615H1764.2V506H1714.2V615H1677.2V469.96L1863.7 470.5L1868.7 473.141Z" fill="white"/>
<path fill-rule="evenodd" clip-rule="evenodd" d="M2047.38 470.815C2056.44 473.872 2066.24 483.516 2069.92 493C2071.5 497.063 2071.69 503.205 2071.97 556.25L2072.27 615H2014.82C1961.4 615 1956.95 614.868 1951.33 613.119C1939.38 609.398 1928.7 598.233 1926.27 586.911C1925.64 583.983 1925.2 569.667 1925.2 552.451V523H2036.28L2035.7 506.5L1925.2 505.983V468.925L1984.45 469.249C2028.24 469.489 2044.66 469.897 2047.38 470.815ZM1962.7 577.5L1962.13 554.975L2035.7 555.5L2035.98 566.223C2036.26 576.667 2036.2 576.959 2033.98 577.502C2032.72 577.808 2016.17 577.933 1997.2 577.779L1962.7 577.5Z" fill="white"/>
<path d="M2227.79 473.187C2230.59 474.664 2235.17 478.378 2237.97 481.44C2244.28 488.347 2247.2 495.646 2247.2 504.538V511H2211.41L2210.15 505.975L2137.7 506.5L2137.12 523H2175.11C2215.09 523 2220.08 523.428 2228.29 527.561C2234.7 530.788 2242.58 539.725 2245.2 546.744C2247.16 551.981 2247.32 554.052 2247.02 570.491C2246.72 587.355 2246.54 588.818 2244.2 593.5C2240.99 599.913 2233.01 607.965 2226.99 610.87C2224.39 612.119 2219.44 613.55 2215.99 614.05C2207.31 615.305 2139.18 615.226 2131.33 613.953C2123.22 612.636 2116.9 609.391 2111.12 603.579C2104.08 596.498 2101.79 591.142 2101.36 580.75L2101 572H2137.2V578H2173.59C2205.85 578 2210.05 577.821 2210.59 576.418C2211.46 574.151 2211.31 562.728 2210.39 561.282C2209.81 560.365 2199.39 559.995 2168.16 559.782L2126.7 559.5L2121.2 556.881C2114.63 553.752 2107.45 546.757 2104.12 540.236C2101.86 535.816 2101.68 534.266 2101.38 517.016C2101.18 505.389 2101.49 497.041 2102.19 494.516C2104.72 485.508 2115.67 474.13 2124.67 471.164C2126.54 470.547 2145.84 470.23 2175.2 470.333L2222.7 470.5L2227.79 473.187Z" fill="white"/>
<path d="M2313.2 470H2368.2V507H2313.2V578H2368.2V615L2340.95 614.992C2311.37 614.984 2303.49 614.197 2296.25 610.527C2290.28 607.5 2283.3 600.462 2280.14 594.28L2277.7 589.5L2277.16 426H2313.2V470Z" fill="white"/>
<path fill-rule="evenodd" clip-rule="evenodd" d="M2515.93 472.38C2523.47 475.861 2530.26 482.774 2534.02 490.782L2536.7 496.5L2537.3 559.983L2427.7 560.5L2427.4 568.413C2427.19 574.068 2427.48 576.561 2428.4 577.148C2429.11 577.6 2453.88 577.976 2483.45 577.985L2537.2 578V615.061L2418.7 614.5L2413.2 611.89C2405.04 608.018 2398.79 601.96 2394.98 594.218L2391.7 587.541V495.5L2394.07 490.72C2399.12 480.547 2409.54 472.047 2419.42 470.033C2421.77 469.554 2443.05 469.237 2466.7 469.331L2509.7 469.5L2515.93 472.38ZM2427.2 528V506H2501.2V528H2427.2Z" fill="white"/>
<path d="M2682.2 505.977L2603.7 506.5L2603.18 615H2567.2V496.5L2570.05 490.5C2573.77 482.671 2579.86 476.549 2587.52 472.923L2593.7 470.002L2682.2 470V505.977Z" fill="white"/>
<path d="M2736.2 615H2701.2V470H2736.2V615Z" fill="white"/>
<path d="M2736.2 458H2701.2V421H2736.2V458Z" fill="white"/>
<path d="M2881.38 470.815C2890.44 473.871 2900.24 483.515 2903.92 493C2905.5 497.063 2905.69 503.205 2905.97 556.25L2906.27 615H2870.21L2869.7 506.5L2796.2 505.975V615H2759.2V542.667C2759.2 502.883 2759.51 470.017 2759.9 469.629C2760.29 469.242 2786.95 469.071 2819.15 469.249C2862.38 469.489 2878.66 469.898 2881.38 470.815Z" fill="white"/>
<path fill-rule="evenodd" clip-rule="evenodd" d="M3059.41 472.781C3066.88 476.464 3073.56 483.151 3077.32 490.72L3079.7 495.5V646.5L3076.77 652.281C3073.15 659.412 3065.97 666.28 3058.41 669.82L3052.7 672.5L2957.2 673.091V635.021L3043.7 634.5L3043.99 626.503C3044.16 622.105 3044.04 617.511 3043.73 616.295L3043.18 614.083L2959.7 613.5L2954.16 610.782C2947.1 607.313 2939.88 600.097 2936.41 593.033L2933.7 587.5V496.5L2936.33 490.88C2941.24 480.404 2949.99 473.014 2960.58 470.383C2964.39 469.437 2976.81 469.162 3009.22 469.306L3052.74 469.5L3059.41 472.781ZM2970.7 577.5L2970.17 505.975L3043.7 506.5L3044.22 576.955L3041.96 577.507C3040.71 577.81 3024.17 577.933 3005.2 577.779L2970.7 577.5Z" fill="white"/>
<path fill-rule="evenodd" clip-rule="evenodd" d="M326.196 63H387.196V0H326.196V63ZM3124.2 75L3064.95 75.008C3028.7 75.012 3003.17 75.42 2999.2 76.058C2982.09 78.8 2965.58 91.546 2957.16 108.5L2952.7 117.5L2952.41 187.315C2952.23 229.532 2952.5 259.18 2953.09 262.315C2953.98 267.064 2956.21 272.683 2959.7 278.919C2962.65 284.197 2971.91 293.502 2978.39 297.692C2982.36 300.264 2988.64 303.135 2993.39 304.556L3001.55 307H3186.2V0H3124.2V75ZM43.52 21.991C39.573 23.026 34.848 24.639 33.02 25.577C19.722 32.396 8.919 44.118 2.97 58.184C0.786 63.35 0.713 64.637 0.398 103.692C0.192 129.138 0.462 145.986 1.132 149.613C4.079 165.555 19.269 183.969 34.874 190.517C45.27 194.879 48.048 195 137.761 195H223.196V243H62.196V220H0L0.396 241.75C0.774 262.464 0.917 263.794 3.393 269.672C10.088 285.566 23.836 298.436 40.339 304.257L46.696 306.5H142.196C233.291 306.5 237.973 306.412 243.696 304.598C261.06 299.092 274.331 287.021 282.035 269.722L285.696 261.5V178.5L283.233 172C279.688 162.645 276.639 157.593 270.603 151.073C263.38 143.271 254.42 137.474 244.972 134.489L237.093 132H62.196V84H223.196V107H286.196L286.163 91.25C286.118 69.605 285.261 64.112 280.307 53.734C273.013 38.449 258.158 26.011 242.196 21.821C236.295 20.273 227.171 20.115 143.196 20.113C55.853 20.11 50.296 20.215 43.52 21.991ZM950.196 84H1061.2V307H1124.2V84H1236.2V20H950.196V84ZM1855 21.549C1844.44 24.108 1836.34 28.837 1827.69 37.492C1818.69 46.493 1814.11 54.244 1811.73 64.514C1809.64 73.526 1809.55 142.486 1811.61 151.128C1815.33 166.66 1829.05 182.942 1844.2 189.782C1855.56 194.913 1857.24 194.998 1948.45 194.999L2033.2 195V243H1873.26L1872.7 220.5L1810.2 219.972V237.924C1810.2 258.3 1811.4 265.47 1816.45 275.299C1821.16 284.454 1832.78 295.748 1842.2 300.331C1856.67 307.373 1851.52 307.081 1955.82 306.771L2049.7 306.492L2056.04 304.121C2066.29 300.294 2071.23 297.088 2079.26 289.063C2087.29 281.036 2090.59 275.935 2094.34 265.785C2096.58 259.711 2096.67 258.272 2096.99 222.997C2097.35 183.405 2096.8 177.314 2091.88 166.672C2086.56 155.165 2075.3 143.61 2063.7 137.749C2051.89 131.784 2055.76 132 1960.51 132H1873.2V84H2033.2V107H2097.2V90.684C2097.2 70.946 2096.21 65.034 2091.1 54.078C2087.85 47.131 2085.72 44.242 2078.93 37.578C2069.88 28.704 2061.81 24.064 2050.94 21.502C2041.97 19.386 1863.74 19.429 1855 21.549ZM326.877 75.652C326.503 76.027 326.196 128.233 326.196 191.667V307H387.204L386.696 75.5L357.127 75.235C340.864 75.09 327.252 75.277 326.877 75.652ZM463.222 76.118C443.176 79.523 421.794 100.577 418.103 120.546C417.483 123.898 417.219 152.128 417.404 195.218L417.702 264.5L420.544 270.5C427.398 284.972 437.031 294.977 450.196 301.298C462.389 307.153 459.478 307 558.92 307H650.224L649.696 244.5L478.196 243.989V222H650.196V174.684C650.196 144.694 649.795 125.194 649.101 121.434C645.712 103.059 629.791 85.047 610.798 78.098L603.696 75.5L536.196 75.344C498.361 75.257 466.29 75.597 463.222 76.118ZM734.218 76.141C727.131 77.316 714.01 83.766 707.876 89.091C699.536 96.331 692.872 106.56 689.227 117.718C687.268 123.718 687.196 126.299 687.196 190.938V257.938L689.643 265.434C695.424 283.142 708.578 296.723 726.469 303.452L733.242 306H860.196V335H724.196V397H874.134L881.7 394.53C897.195 389.472 910.507 377.437 917.127 362.5C922.107 351.267 922.193 349.11 922.193 236.5C922.193 123.89 922.107 121.733 917.127 110.5C909.315 92.874 891.897 78.942 874.055 76.047C866.137 74.762 742.036 74.846 734.218 76.141ZM1264.2 138H1435.2V160H1264.2L1264.21 209.75C1264.22 248.609 1264.52 260.623 1265.59 264.632C1267.82 273.005 1273.21 281.898 1280.68 289.505C1288.13 297.093 1293.97 300.86 1303.7 304.348C1309.65 306.485 1310.35 306.502 1403.47 306.77L1497.25 307.04L1496.7 120.5L1494.1 113.914C1490.68 105.28 1484.68 96.554 1477.84 90.308C1471.17 84.208 1465.72 80.922 1457.16 77.832L1450.7 75.5L1264.2 74.932V138ZM1582.54 76.073C1561.78 79.631 1541.47 98.556 1536.62 118.855C1534.64 127.117 1534.65 254.918 1536.63 263.186C1538.84 272.432 1544.84 282.381 1552.73 289.896C1560.5 297.284 1566.06 300.761 1575.17 303.91C1581.04 305.945 1582.89 306 1644.73 306H1708.25L1707.7 334.5L1571.2 335.014V397H1721.85L1728.79 394.638C1739.02 391.158 1743.35 388.674 1750.12 382.407C1759.57 373.658 1764.54 365.534 1767.8 353.5C1769.61 346.827 1769.7 341.357 1769.7 236.5C1769.7 131.96 1769.6 126.153 1767.82 119.5C1762.7 100.481 1748.4 84.904 1729.8 78.098L1722.7 75.5L1655.2 75.344C1618.07 75.258 1585.37 75.586 1582.54 76.073ZM2179.84 76.584C2162.85 80.698 2146.71 94.728 2139.11 112L2136.7 117.5L2136.42 189.418C2136.15 260.319 2136.17 261.425 2138.26 267.684C2143.99 284.909 2161.19 300.864 2178.97 305.448C2184.5 306.876 2193.38 307.031 2254.97 306.776C2324.59 306.488 2324.71 306.485 2330.7 304.228C2344.49 299.033 2357.44 287.048 2364.17 273.254C2370.07 261.138 2370.33 257.314 2369.96 186.778C2369.66 128.661 2369.48 123.051 2367.8 118C2364.22 107.242 2360.15 100.718 2351.81 92.394C2342.99 83.588 2333.62 78.214 2323.4 76.097C2314.84 74.325 2187.39 74.757 2179.84 76.584ZM2412.2 262.909L2414.49 269.22C2420.73 286.426 2436.53 300.951 2453.84 305.416C2459.15 306.785 2469.1 307 2527.04 307C2571.81 307 2595.86 306.635 2599.4 305.903C2615.28 302.614 2631.62 289.554 2639.04 274.201C2641.33 269.467 2643.49 263.106 2644.14 259.234C2644.91 254.548 2645.17 225.583 2644.97 164L2644.7 75.5H2582.7L2582.19 244H2473.21L2472.7 75.5L2412.2 74.971V262.909ZM2688.2 307H2749.2V138H2859.2V307H2921.2L2921.17 215.75C2921.16 157.079 2920.78 122.893 2920.12 120C2918.4 112.428 2912.3 101.402 2906.09 94.63C2898.9 86.778 2891.47 81.723 2881.92 78.181L2874.7 75.5L2688.2 74.932V307ZM588.196 167H478.196V138H588.196V167ZM860.196 244H749.196V138H860.196V244ZM1708.2 244H1596.2V138H1708.2V244ZM2307.2 244H2198.2V138H2307.2V244ZM3124.2 244H3014.2V138H3124.2V244ZM1435.2 244H1325.2V215H1435.2V244Z" fill="#EE6F1F"/>
</g>
<defs>
<clipPath id="clip0_468_16253">
<rect width="3187" height="674" fill="white"/>
</clipPath>
</defs>
</svg>
