<svg width="10" height="16" viewBox="0 0 10 16" fill="none" xmlns="http://www.w3.org/2000/svg">
<path d="M2.22222 4.44792C2.22222 3.22222 3.21875 2.22569 4.44444 2.22569H5.55556C6.78125 2.22569 7.77778 3.22222 7.77778 4.44792V4.57292C7.77778 5.32986 7.39236 6.03472 6.75694 6.44097L5.29167 7.38194C4.41667 7.94444 3.88889 8.91319 3.88889 9.95139V10C3.88889 10.6146 4.38542 11.1111 5 11.1111C5.61458 11.1111 6.11111 10.6146 6.11111 10V9.95139C6.11111 9.66667 6.25694 9.40278 6.49306 9.25L7.95833 8.30903C9.22917 7.48958 10 6.08333 10 4.56944V4.44444C10 1.98958 8.01042 0 5.55556 0H4.44444C1.98958 0.00347222 0 1.99306 0 4.44792C0 5.0625 0.496528 5.55903 1.11111 5.55903C1.72569 5.55903 2.22222 5.0625 2.22222 4.44792ZM5 15.559C5.36836 15.559 5.72163 15.4127 5.98209 15.1522C6.24256 14.8918 6.38889 14.5385 6.38889 14.1701C6.38889 13.8018 6.24256 13.4485 5.98209 13.188C5.72163 12.9276 5.36836 12.7812 5 12.7812C4.63164 12.7812 4.27837 12.9276 4.01791 13.188C3.75744 13.4485 3.61111 13.8018 3.61111 14.1701C3.61111 14.5385 3.75744 14.8918 4.01791 15.1522C4.27837 15.4127 4.63164 15.559 5 15.559Z" fill="#fff"/>
</svg>
