<svg width="287" height="285" viewBox="0 0 287 285" fill="none" xmlns="http://www.w3.org/2000/svg">
<path d="M286.84 51V85H224.84V61H62.8395V112.5H236.34L245.34 114.5L255.34 118.5L261.84 123L268.34 128.5L274.34 134L279.34 141L283.84 151L286.84 162V234L285.84 239.5L282.34 249.5L276.34 260L268.34 269L261.84 274.5L253.84 279L245.34 282.5L232.84 285H55.3395L49.3395 284L40.3395 281.5L30.8395 277L23.8395 272.5L17.3395 266L11.8395 259.5L7.83954 254L4.83954 246L1.83954 234.5V200H62.8395V223.5H224.84V171.5L51.8395 172L43.3395 171L37.3395 169L31.3395 165.5L26.3395 162.5L21.8395 159L16.8395 154L11.3395 147L7.83954 141L4.83954 134.5L2.83954 128L1.83954 122C1.83954 122 -2.29943 79.0215 1.83954 52C2.1992 49.6519 2.83954 46 2.83954 46L4.83954 38.5L8.33954 32C8.33954 32 10.3448 28.2637 11.8395 26C13.4534 23.5558 14.3516 22.151 16.3395 20C18.1226 18.0708 21.3395 15.5 21.3395 15.5L25.8395 11C25.8395 11 29.7581 8.78379 32.3395 7.5C35.7834 5.7873 37.6838 4.69534 41.3395 3.5C42.6907 3.05821 43.5167 3.02037 44.8395 2.5C46.0585 2.02051 46.6128 1.45917 47.8395 1C49.7045 0.301953 52.8395 0 52.8395 0H234.34L239.84 1L243.84 2L250.34 4L255.34 6.5L260.34 9.5L264.34 13L267.34 15.5L271.34 19L275.34 23.5L277.34 27L280.34 31L282.34 35.5L284.34 40L285.84 46L286.84 51Z" fill="#EE701F"/>
</svg>
