<svg width="64" height="64" viewBox="0 0 64 64" fill="none" xmlns="http://www.w3.org/2000/svg">
<circle cx="32" cy="32" r="32" fill="black"/>
<path d="M32 42C34.6522 42 37.1957 40.9464 39.0711 39.0711C40.9464 37.1957 42 34.6522 42 32C42 29.3478 40.9464 26.8043 39.0711 24.9289C37.1957 23.0536 34.6522 22 32 22C29.3478 22 26.8043 23.0536 24.9289 24.9289C23.0536 26.8043 22 29.3478 22 32C22 34.6522 23.0536 37.1957 24.9289 39.0711C26.8043 40.9464 29.3478 42 32 42ZM36.4141 30.1641L31.4141 35.1641C31.0469 35.5312 30.4531 35.5312 30.0898 35.1641L27.5898 32.6641C27.2227 32.2969 27.2227 31.7031 27.5898 31.3398C27.957 30.9766 28.5508 30.9727 28.9141 31.3398L30.75 33.1758L35.0859 28.8359C35.4531 28.4688 36.0469 28.4688 36.4102 28.8359C36.7734 29.2031 36.7773 29.7969 36.4102 30.1602L36.4141 30.1641Z" fill="white"/>
</svg>
