<svg width="64" height="64" viewBox="0 0 64 64" fill="none" xmlns="http://www.w3.org/2000/svg">
<circle cx="32" cy="32" r="32" fill="black"/>
<path d="M41.4961 22.2482C41.8125 22.4826 42 22.8576 42 23.2521V26.0646V36.3771C42 38.1037 40.3203 39.5021 38.25 39.5021C36.1797 39.5021 34.5 38.1037 34.5 36.3771C34.5 34.6505 36.1797 33.2521 38.25 33.2521C38.6875 33.2521 39.1094 33.3146 39.5 33.4318V27.7443L29.5 30.7443V38.8771C29.5 40.6037 27.8203 42.0021 25.75 42.0021C23.6797 42.0021 22 40.6037 22 38.8771C22 37.1505 23.6797 35.7521 25.75 35.7521C26.1875 35.7521 26.6094 35.8146 27 35.9318V29.8146V27.0021C27 26.4513 27.3633 25.963 27.8906 25.8029L40.3906 22.0529C40.7695 21.9396 41.1797 22.0099 41.4961 22.2482Z" fill="white"/>
</svg>
