<svg width="64" height="64" viewBox="0 0 64 64" fill="none" xmlns="http://www.w3.org/2000/svg">
<circle cx="32" cy="32" r="32" fill="black"/>
<path d="M23.6662 19C22.7446 19 22 19.7446 22 20.6662C22 21.5879 22.7446 22.3325 23.6662 22.3325V22.9052C23.6662 25.113 24.5462 27.2322 26.1083 28.7943L29.6386 32.3299L26.1083 35.8654C24.5462 37.4275 23.6662 39.5467 23.6662 41.7545V42.3273C22.7446 42.3273 22 43.0719 22 43.9935C22 44.9151 22.7446 45.6597 23.6662 45.6597H25.3325H38.6623H40.3286C41.2502 45.6597 41.9948 44.9151 41.9948 43.9935C41.9948 43.0719 41.2502 42.3273 40.3286 42.3273V41.7545C40.3286 39.5467 39.4486 37.4275 37.8865 35.8654L34.3562 32.3299L37.8917 28.7943C39.4538 27.2322 40.3338 25.113 40.3338 22.9052V22.3325C41.2554 22.3325 42 21.5879 42 20.6662C42 19.7446 41.2554 19 40.3338 19H38.6623H25.3325H23.6662ZM26.9987 22.9052V22.3325H36.9961V22.9052C36.9961 24.233 36.4702 25.5035 35.5329 26.4408L31.9974 29.9711L28.4619 26.4356C27.5246 25.5035 26.9987 24.2278 26.9987 22.9052Z" fill="white"/>
</svg>
