<svg width="64" height="64" viewBox="0 0 64 64" fill="none" xmlns="http://www.w3.org/2000/svg">
<circle cx="32" cy="32" r="32" fill="black"/>
<path d="M46.9977 34.4445C46.9367 35.5277 46.4584 36.5454 45.6659 37.2816C44.8733 38.0178 43.8276 38.4258 42.7443 38.4117H32.5214C32.2963 38.4117 32.0806 38.318 31.9212 38.1585C31.7617 37.9991 31.6726 37.7834 31.6726 37.5583V26.5475C31.6633 26.3599 31.7148 26.1724 31.818 26.0129C31.9212 25.8535 32.0665 25.7269 32.24 25.6518C32.24 25.6518 33.1826 25 35.1616 25C36.3714 25 37.5579 25.3236 38.5989 25.9426C39.4102 26.4209 40.1136 27.0587 40.6669 27.823C41.2203 28.5874 41.6048 29.4549 41.8018 30.3741C42.1535 30.2756 42.5193 30.224 42.885 30.224C43.4337 30.2193 43.9777 30.3272 44.4888 30.5382C45 30.7492 45.4501 31.0681 45.8347 31.462C46.2192 31.8559 46.5193 32.3202 46.721 32.836C46.9226 33.3519 47.0164 33.8958 46.9977 34.4445ZM30.3971 27.2462C30.4018 27.1993 30.3971 27.1524 30.383 27.1102C30.369 27.068 30.3455 27.0258 30.3127 26.9883C30.2799 26.9508 30.2424 26.9274 30.2002 26.9086C30.1579 26.8898 30.1111 26.8805 30.0642 26.8805C30.0173 26.8805 29.9704 26.8898 29.9282 26.9086C29.886 26.9274 29.8484 26.9555 29.8156 26.9883C29.7828 27.0211 29.7593 27.0633 29.7453 27.1102C29.7312 27.1571 29.7265 27.1993 29.7312 27.2462C29.4498 30.9462 29.2341 34.4164 29.7312 38.1069C29.7406 38.1866 29.7781 38.2617 29.8391 38.318C29.9 38.3742 29.9797 38.4024 30.0595 38.4024C30.1392 38.4024 30.2189 38.3742 30.2799 38.318C30.3408 38.2617 30.3784 38.1866 30.3877 38.1069C30.9176 34.3835 30.6972 30.979 30.3877 27.2462H30.3971ZM28.3338 28.5264C28.3244 28.442 28.2822 28.3623 28.2212 28.306C28.1603 28.2498 28.0758 28.2169 27.9867 28.2169C27.8976 28.2169 27.8179 28.2498 27.7523 28.306C27.6866 28.3623 27.6491 28.442 27.6397 28.5264C27.2693 31.7106 27.2693 34.9275 27.6397 38.1116C27.6538 38.196 27.696 38.2711 27.757 38.3226C27.8179 38.3742 27.9023 38.4071 27.9821 38.4071C28.0618 38.4071 28.1462 38.3789 28.2071 38.3226C28.2681 38.2664 28.3103 38.1913 28.3244 38.1116C28.7371 34.9322 28.7371 31.7106 28.3291 28.5264H28.3338ZM26.2564 28.2029C26.247 28.1185 26.2095 28.0434 26.1485 27.9872C26.0875 27.9309 26.0078 27.9028 25.9234 27.9028C25.839 27.9028 25.7593 27.9356 25.6983 27.9872C25.6373 28.0387 25.5998 28.1185 25.5905 28.2029C25.2763 31.5793 25.1121 34.7352 25.5905 38.1022C25.5905 38.1913 25.6233 38.2757 25.6889 38.3367C25.7546 38.3977 25.8343 38.4352 25.9234 38.4352C26.0125 38.4352 26.0969 38.4024 26.1579 38.3367C26.2188 38.2711 26.2564 38.1913 26.2564 38.1022C26.7487 34.6883 26.5987 31.6215 26.261 28.2029H26.2564ZM24.193 29.1689C24.193 29.0798 24.1555 28.9907 24.0945 28.925C24.0336 28.8594 23.9445 28.8266 23.8507 28.8266C23.7569 28.8266 23.6725 28.8641 23.6068 28.925C23.5412 28.986 23.5083 29.0751 23.5083 29.1689C23.1285 32.1373 23.1285 35.1479 23.5083 38.1163C23.5177 38.2007 23.5552 38.2757 23.6209 38.332C23.6865 38.3883 23.7663 38.4211 23.846 38.4211C23.9257 38.4211 24.0101 38.3883 24.0711 38.332C24.132 38.2757 24.1742 38.2007 24.1836 38.1163C24.5963 35.1479 24.601 32.1373 24.1977 29.1689H24.193ZM22.1062 31.4011C22.1062 31.312 22.0687 31.2229 22.0077 31.1619C21.9468 31.1009 21.8577 31.0634 21.7686 31.0634C21.6795 31.0634 21.5904 31.1009 21.5294 31.1619C21.4685 31.2229 21.4309 31.312 21.4309 31.4011C20.9385 33.7083 21.173 35.8044 21.4497 38.1351C21.4638 38.2101 21.5013 38.2804 21.5576 38.332C21.6138 38.3836 21.6889 38.4117 21.7686 38.4117C21.8483 38.4117 21.9186 38.3836 21.9796 38.332C22.0406 38.2804 22.0781 38.2148 22.0875 38.1351C22.397 35.7716 22.6314 33.7223 22.1062 31.4011ZM20.0382 31.0494C20.0288 30.9649 19.9866 30.8852 19.9256 30.8243C19.8647 30.7633 19.7756 30.7352 19.6912 30.7352C19.6068 30.7352 19.5223 30.768 19.4567 30.8243C19.391 30.8805 19.3535 30.9603 19.3441 31.0494C18.908 33.4034 19.0534 35.4762 19.3582 37.8256C19.391 38.182 19.996 38.1773 20.0335 37.8256C20.3711 35.4386 20.5259 33.4269 20.0476 31.0494H20.0382ZM17.9467 32.2029C17.9373 32.1185 17.8951 32.0388 17.8342 31.9779C17.7732 31.9169 17.6841 31.8888 17.5997 31.8888C17.5153 31.8888 17.4309 31.9216 17.3652 31.9779C17.2996 32.0341 17.2574 32.1139 17.2527 32.2029C16.8541 33.7833 16.976 35.0916 17.2808 36.6767C17.2902 36.7564 17.3277 36.8314 17.3887 36.883C17.4496 36.9346 17.5246 36.9674 17.6091 36.9674C17.6935 36.9674 17.7685 36.9393 17.8295 36.883C17.8904 36.8267 17.9279 36.7564 17.9373 36.6767C18.289 35.0588 18.4625 33.7786 17.9561 32.2029H17.9467Z" fill="white"/>
</svg>
