<svg width="64" height="64" viewBox="0 0 64 64" fill="none" xmlns="http://www.w3.org/2000/svg">
<circle cx="32" cy="32" r="32" fill="black"/>
<path d="M32 24.875C27.8555 24.875 24.4375 27.9766 23.9375 31.9844C24.3047 31.8359 24.7031 31.75 25.125 31.75C26.1602 31.75 27 32.5898 27 33.625V38.625C27 39.6602 26.1602 40.5 25.125 40.5C23.3984 40.5 22 39.1016 22 37.375V36.75V34.875V33C22 27.4766 26.4766 23 32 23C37.5234 23 42 27.4766 42 33V34.875V36.75V37.375C42 39.1016 40.6016 40.5 38.875 40.5C37.8398 40.5 37 39.6602 37 38.625V33.625C37 32.5898 37.8398 31.75 38.875 31.75C39.2969 31.75 39.6953 31.832 40.0625 31.9844C39.5625 27.9766 36.1445 24.875 32 24.875Z" fill="white"/>
</svg>
