<svg width="30" height="22" viewBox="0 0 30 22" fill="none" xmlns="http://www.w3.org/2000/svg">
<path d="M29.3739 3.30099C29.0278 1.99927 28.0117 0.977664 26.721 0.631637C24.3812 0 15 0 15 0C15 0 5.61882 0 3.27902 0.631637C1.98828 0.977664 0.972171 1.99927 0.626144 3.30099C0 5.65727 0 10.5676 0 10.5676C0 10.5676 0 15.4778 0.626144 17.8341C0.972171 19.1358 1.98828 20.1135 3.27902 20.4595C5.61882 21.0912 15 21.0912 15 21.0912C15 21.0912 24.3812 21.0912 26.721 20.4595C28.0117 20.1135 29.0278 19.1304 29.3739 17.8341C30 15.4778 30 10.5676 30 10.5676C30 10.5676 30 5.65727 29.3739 3.30099ZM11.9352 15.0275V6.10765L19.773 10.5676L11.9352 15.0275Z" fill="white"/>
</svg>
